<svg width="512" height="208" viewBox="0 0 512 208" fill="none" xmlns="http://www.w3.org/2000/svg">
<path d="M320.078 58.3534C311.358 60.7853 304.158 62.088 296.798 64.9542C290.958 66.6044 285.038 68.3414 278.238 70.2522L277.758 70.339C274.399 71.3812 274.079 71.4681 270.959 67.5597C267.199 62.9566 264.479 60.0036 259.279 57.2243C243.519 48.8865 228.319 51.3183 214.159 61.3064C197.199 73.2051 188.479 90.8362 188.719 112.723C188.959 134.436 202.639 152.241 221.679 155.194C239.279 157.626 253.519 151.199 264.719 137.389C266.399 135.131 267.919 132.786 269.599 130.18C270.239 129.312 270.799 128.356 271.438 127.314H223.359C218.159 127.314 216.879 123.84 218.639 119.237C221.839 110.812 227.839 96.7421 231.359 89.7071C232.079 88.1437 233.839 84.6697 236.879 84.6697H317.758C321.358 73.0314 327.198 61.3064 335.038 50.1893C353.198 24.2204 374.478 10.6714 404.798 5.02603C430.238 0.162303 454.158 2.85473 475.917 18.8356C495.597 33.4268 507.757 53.2291 511.037 79.198C515.277 115.763 505.517 145.466 481.677 170.914C465.917 189.066 445.758 200.444 422.558 205.568C418.078 206.437 413.678 206.871 409.358 207.305C407.038 207.479 404.798 207.739 402.558 208C379.918 207.479 359.198 200.444 341.758 184.202C329.518 172.651 321.038 158.494 316.878 142.079C313.918 148.419 310.478 154.586 305.678 160.405C288.398 186.113 264.959 202.094 235.359 206.35C210.879 209.911 188.239 204.786 168.239 188.545C149.839 173.346 139.359 153.37 136.639 128.443C133.359 98.9134 141.359 71.6418 157.759 49.147C175.519 23.9599 198.959 7.97902 227.599 2.33362C251.039 -3.05123 273.439 0.683426 293.678 15.622C306.878 25.0889 316.318 38.0299 322.558 53.7502C324.078 56.1821 323.038 57.5717 320.078 58.3534ZM38.6398 63.2171C37.6398 63.2171 37.3918 62.696 37.8878 61.8275L43.1278 54.5319C43.6238 53.7502 44.8718 53.2291 45.8718 53.2291H134.879C135.839 53.2291 136.079 54.0108 135.599 54.7924L131.359 61.8275C130.879 62.696 129.599 63.4777 128.879 63.4777L38.6398 63.2171ZM0.996806 88.1438C1.18255e-05 88.1438 -0.249267 87.5358 0.24929 86.7541L5.48398 79.4585C5.98318 78.6768 7.22957 78.0689 8.22397 78.0689H121.919C122.879 78.0689 123.359 78.9374 123.119 79.7191L121.119 86.233C120.879 87.2752 119.919 87.8832 118.879 87.8832L0.996806 88.1438ZM60.5757 111.42C60.0797 112.202 60.3277 112.984 61.3197 112.984L115.679 113.244C116.399 113.244 117.439 112.462 117.439 111.42L117.919 104.906C117.919 103.777 117.439 102.996 116.399 102.996H66.5596C65.5596 102.996 64.5677 103.777 64.0637 104.646L60.5757 111.42ZM461.757 95.7868C461.597 93.5286 461.517 91.6178 461.197 89.7071C456.717 62.9566 433.998 47.7574 410.318 53.7502C387.118 59.3956 372.158 75.3765 366.718 100.824C362.238 121.929 371.678 143.295 389.598 151.98C403.358 158.494 417.038 157.712 430.238 150.33C449.918 138.518 460.637 121.929 461.917 98.6529C461.837 97.6107 461.837 96.6553 461.757 95.7868Z" fill="white"/>
</svg>
