<svg width="507" height="243" viewBox="0 0 507 243" fill="none" xmlns="http://www.w3.org/2000/svg">
<path d="M101.462 81.061C117.283 81.061 127.827 83.981 133.099 89.822C138.366 95.663 139.621 105.689 136.865 119.896C133.986 134.691 128.442 145.251 120.224 151.578C112.006 157.906 99.5 161.066 82.711 161.066H57.381L72.93 81.061H101.462ZM0 242.057H41.643L51.52 191.234H87.189C102.928 191.234 115.875 189.584 126.039 186.274C136.204 182.969 145.441 177.426 153.756 169.644C160.734 163.229 166.38 156.154 170.704 148.417C175.023 140.686 178.092 132.15 179.906 122.816C184.312 100.156 180.987 82.506 169.941 69.861C158.895 57.216 141.322 50.894 117.232 50.894H37.154L0 242.057Z" fill="white"/>
<path d="M210.49 0.0709991H251.804L241.926 50.894H278.732C301.889 50.894 317.864 54.936 326.656 63.011C335.447 71.091 338.081 84.181 334.566 102.277L317.28 191.234H275.31L291.746 106.652C293.616 97.03 292.93 90.467 289.682 86.968C286.434 83.468 279.523 81.717 268.953 81.717H235.933L214.65 191.233H173.335L210.49 0.0709991Z" fill="white"/>
<path d="M426.49 81.061C442.311 81.061 452.855 83.981 458.127 89.822C463.396 95.663 464.65 105.689 461.893 119.896C459.014 134.691 453.472 145.251 445.252 151.578C437.034 157.906 424.528 161.066 407.739 161.066H382.41L397.959 81.061H426.49ZM325.029 242.057H366.672L376.548 191.234H412.217C427.956 191.234 440.903 189.584 451.068 186.274C461.232 182.969 470.469 177.426 478.785 169.644C485.764 163.229 491.409 156.154 495.733 148.417C500.051 140.686 503.121 132.15 504.934 122.816C509.34 100.156 506.016 82.506 494.969 69.861C483.923 57.216 466.35 50.894 442.26 50.894H362.184L325.029 242.057Z" fill="white"/>
</svg>
