<svg width="512" height="512" viewBox="0 0 512 512" fill="none" xmlns="http://www.w3.org/2000/svg">
<g clip-path="url(#clip0_11_2)">
<path d="M392 328V88H352V368H512V328H392Z" fill="white"/>
<path d="M293.75 88H217.25C207.105 88 197.376 92.027 190.203 99.195C183.03 106.363 179 116.085 179 126.222V317.333C179 327.47 183.03 337.192 190.203 344.361C197.376 351.529 207.105 355.556 217.25 355.556H236.375V393.778C236.375 403.915 240.405 413.637 247.578 420.805C254.751 427.973 264.48 432 274.625 432H312.875V393.778H274.625V355.556H293.75C303.895 355.556 313.624 351.529 320.797 344.361C327.97 337.192 332 327.47 332 317.333V126.222C332 116.085 327.97 106.363 320.797 99.195C313.624 92.027 303.895 88 293.75 88ZM217.25 317.333V126.222H293.75V317.333H217.25Z" fill="white"/>
<path d="M120 368H0V328H120V248H40C29.3913 248 19.2172 243.786 11.7157 236.284C4.21427 228.783 0 218.609 0 208V128C0 117.391 4.21427 107.217 11.7157 99.7157C19.2172 92.2143 29.3913 88 40 88H160V128H40V208H120C130.609 208 140.783 212.214 148.284 219.716C155.786 227.217 160 237.391 160 248V328C160 338.609 155.786 348.783 148.284 356.284C140.783 363.786 130.609 368 120 368Z" fill="white"/>
</g>
<defs>
<clipPath id="clip0_11_2">
<rect width="512" height="512" fill="white"/>
</clipPath>
</defs>
</svg>
